<svg width="170" height="62" viewBox="0 0 170 62" fill="none" xmlns="http://www.w3.org/2000/svg">
<path d="M15.02 25.57H7.7C5.08 25.57 3.14 24.89 1.88 23.53C0.64 22.17 0.0200001 20.41 0.0200001 18.25V9.82C0.0200001 8.72 0.18 7.77 0.5 6.97C0.82 6.15 1.29 5.47 1.91 4.93L5.81 1.66C6.43 1.14 7.22 0.749999 8.18 0.49C9.14 0.23 10.27 0.0999994 11.57 0.0999994H18.89C19.37 0.0999994 19.72 0.209999 19.94 0.429999C20.16 0.649999 20.27 1 20.27 1.48V5.11C20.27 5.37 20.23 5.59 20.15 5.77C20.09 5.95 19.99 6.1 19.85 6.22L15.95 9.46C15.87 9.54 15.74 9.61 15.56 9.67C15.4 9.73 15.22 9.76 15.02 9.76H11.33V14.83C11.33 15.25 11.46 15.55 11.72 15.73C11.98 15.89 12.36 15.97 12.86 15.97H18.89C19.37 15.97 19.72 16.08 19.94 16.3C20.16 16.52 20.27 16.87 20.27 17.35V20.92C20.27 21.18 20.23 21.4 20.15 21.58C20.09 21.76 19.99 21.91 19.85 22.03L15.95 25.27C15.87 25.35 15.74 25.42 15.56 25.48C15.4 25.54 15.22 25.57 15.02 25.57ZM18.89 22C19.27 22 19.54 21.92 19.7 21.76C19.88 21.58 19.97 21.3 19.97 20.92V17.35C19.97 16.97 19.88 16.7 19.7 16.54C19.54 16.36 19.27 16.27 18.89 16.27H12.86C12.24 16.27 11.78 16.16 11.48 15.94C11.18 15.7 11.03 15.33 11.03 14.83V7.69C11.03 7.19 11.18 6.82 11.48 6.58C11.78 6.32 12.24 6.19 12.86 6.19H18.89C19.27 6.19 19.54 6.11 19.7 5.95C19.88 5.77 19.97 5.49 19.97 5.11V1.48C19.97 1.1 19.88 0.83 19.7 0.669999C19.54 0.489999 19.27 0.399999 18.89 0.399999H11.57C9.07 0.399999 7.21 0.909999 5.99 1.93C4.79 2.93 4.19 4.47 4.19 6.55V15.88C4.19 17.96 4.79 19.5 5.99 20.5C7.21 21.5 9.07 22 11.57 22H18.89ZM17.24 19V19.3H12.23C10.29 19.3 9 19 8.36 18.4C7.74 17.8 7.43 16.81 7.43 15.43V7.03C7.43 5.61 7.75 4.6 8.39 4C9.03 3.4 10.31 3.1 12.23 3.1H17.24V3.4H12.23C10.47 3.4 9.28 3.68 8.66 4.24C8.04 4.78 7.73 5.71 7.73 7.03V15.43C7.73 16.73 8.03 17.65 8.63 18.19C9.23 18.73 10.43 19 12.23 19H17.24ZM35.8562 25.57H23.0762C22.5962 25.57 22.2462 25.46 22.0262 25.24C21.8062 25.02 21.6962 24.67 21.6962 24.19V20.62C21.6962 20.36 21.7262 20.14 21.7862 19.96C21.8662 19.78 21.9762 19.63 22.1162 19.51L25.7462 16.45V9.76H23.0762C22.5962 9.76 22.2462 9.65 22.0262 9.43C21.8062 9.21 21.6962 8.86 21.6962 8.38V4.75C21.6962 4.49 21.7262 4.27 21.7862 4.09C21.8662 3.91 21.9762 3.76 22.1162 3.64L25.9862 0.37C26.0862 0.289999 26.2162 0.229999 26.3762 0.189998C26.5562 0.129999 26.7462 0.0999994 26.9462 0.0999994H39.7262C40.2062 0.0999994 40.5562 0.209999 40.7762 0.429999C40.9962 0.649999 41.1062 1 41.1062 1.48V5.11C41.1062 5.37 41.0662 5.59 40.9862 5.77C40.9262 5.95 40.8262 6.1 40.6862 6.22L37.1162 9.22V15.97H39.7262C40.2062 15.97 40.5562 16.08 40.7762 16.3C40.9962 16.52 41.1062 16.87 41.1062 17.35V20.92C41.1062 21.18 41.0662 21.4 40.9862 21.58C40.9262 21.76 40.8262 21.91 40.6862 22.03L36.7862 25.27C36.7062 25.35 36.5762 25.42 36.3962 25.48C36.2362 25.54 36.0562 25.57 35.8562 25.57ZM26.9462 22H39.7262C40.1062 22 40.3762 21.92 40.5362 21.76C40.7162 21.58 40.8062 21.3 40.8062 20.92V17.35C40.8062 16.97 40.7162 16.7 40.5362 16.54C40.3762 16.36 40.1062 16.27 39.7262 16.27H36.8162V6.19H39.7262C40.1062 6.19 40.3762 6.11 40.5362 5.95C40.7162 5.77 40.8062 5.49 40.8062 5.11V1.48C40.8062 1.1 40.7162 0.83 40.5362 0.669999C40.3762 0.489999 40.1062 0.399999 39.7262 0.399999H26.9462C26.5662 0.399999 26.2862 0.489999 26.1062 0.669999C25.9462 0.83 25.8662 1.1 25.8662 1.48V5.11C25.8662 5.49 25.9462 5.77 26.1062 5.95C26.2862 6.11 26.5662 6.19 26.9462 6.19H29.9162V16.27H26.9462C26.5662 16.27 26.2862 16.36 26.1062 16.54C25.9462 16.7 25.8662 16.97 25.8662 17.35V20.92C25.8662 21.3 25.9462 21.58 26.1062 21.76C26.2862 21.92 26.5662 22 26.9462 22ZM38.1062 19.3H28.5662V19H33.2162V3.4H28.5662V3.1H38.1062V3.4H33.5162V19H38.1062V19.3ZM53.8285 25.57H48.9685C48.4885 25.57 48.1385 25.46 47.9185 25.24C47.6985 25.02 47.5885 24.67 47.5885 24.19V9.76H43.4785C42.9985 9.76 42.6485 9.65 42.4285 9.43C42.2085 9.21 42.0985 8.86 42.0985 8.38V4.75C42.0985 4.49 42.1285 4.27 42.1885 4.09C42.2685 3.91 42.3785 3.76 42.5185 3.64L46.3885 0.37C46.4885 0.289999 46.6185 0.229999 46.7785 0.189998C46.9585 0.129999 47.1485 0.0999994 47.3485 0.0999994H63.1885C63.6685 0.0999994 64.0185 0.209999 64.2385 0.429999C64.4585 0.649999 64.5685 1 64.5685 1.48V5.11C64.5685 5.37 64.5285 5.59 64.4485 5.77C64.3885 5.95 64.2885 6.1 64.1485 6.22L60.2485 9.46C60.1685 9.54 60.0385 9.61 59.8585 9.67C59.6985 9.73 59.5185 9.76 59.3185 9.76H59.0785V20.92C59.0785 21.18 59.0385 21.4 58.9585 21.58C58.8985 21.76 58.7985 21.91 58.6585 22.03L54.7585 25.27C54.6785 25.35 54.5485 25.42 54.3685 25.48C54.2085 25.54 54.0285 25.57 53.8285 25.57ZM57.6985 22C58.0785 22 58.3485 21.92 58.5085 21.76C58.6885 21.58 58.7785 21.3 58.7785 20.92V6.19H63.1885C63.5685 6.19 63.8385 6.11 63.9985 5.95C64.1785 5.77 64.2685 5.49 64.2685 5.11V1.48C64.2685 1.1 64.1785 0.83 63.9985 0.669999C63.8385 0.489999 63.5685 0.399999 63.1885 0.399999H47.3485C46.9685 0.399999 46.6885 0.489999 46.5085 0.669999C46.3485 0.83 46.2685 1.1 46.2685 1.48V5.11C46.2685 5.49 46.3485 5.77 46.5085 5.95C46.6885 6.11 46.9685 6.19 47.3485 6.19H51.7585V20.92C51.7585 21.3 51.8385 21.58 51.9985 21.76C52.1785 21.92 52.4585 22 52.8385 22H57.6985ZM55.1185 19.3V3.4H48.9685V3.1H61.5685V3.4H55.4185V19.3H55.1185ZM77.2543 25.57H72.3943C71.8943 25.57 71.5343 25.46 71.3143 25.24C71.1143 25.02 71.0143 24.67 71.0143 24.19V20.44L66.4843 14.38C66.0043 13.74 65.6843 13.18 65.5243 12.7C65.3643 12.22 65.2843 11.49 65.2843 10.51V4.75C65.2843 4.49 65.3143 4.27 65.3743 4.09C65.4543 3.91 65.5643 3.76 65.7043 3.64L69.5743 0.37C69.6743 0.289999 69.8043 0.229999 69.9643 0.189998C70.1443 0.129999 70.3343 0.0999994 70.5343 0.0999994H75.1543C75.6343 0.0999994 75.9843 0.209999 76.2043 0.429999C76.4243 0.649999 76.5343 1 76.5343 1.48V6.4C76.5343 6.58 76.5443 6.76 76.5643 6.94C76.5843 7.12 76.6443 7.31 76.7443 7.51L77.1043 8.02V4.75C77.1043 4.49 77.1343 4.27 77.1943 4.09C77.2743 3.91 77.3843 3.76 77.5243 3.64L81.3943 0.37C81.4943 0.289999 81.6243 0.229999 81.7843 0.189998C81.9643 0.129999 82.1543 0.0999994 82.3543 0.0999994H86.8243C87.3043 0.0999994 87.6543 0.209999 87.8743 0.429999C88.0943 0.649999 88.2043 1 88.2043 1.48V7.24C88.2043 8.22 88.1243 8.95 87.9643 9.43C87.8043 9.91 87.4843 10.47 87.0043 11.11L82.5043 17.2V20.92C82.5043 21.18 82.4643 21.4 82.3843 21.58C82.3243 21.76 82.2243 21.91 82.0843 22.03L78.1843 25.27C78.1043 25.35 77.9743 25.42 77.7943 25.48C77.6343 25.54 77.4543 25.57 77.2543 25.57ZM81.1243 22C81.5043 22 81.7743 21.92 81.9343 21.76C82.1143 21.58 82.2043 21.3 82.2043 20.92V17.11L86.7643 10.93C87.2043 10.31 87.5043 9.77 87.6643 9.31C87.8243 8.85 87.9043 8.16 87.9043 7.24V1.48C87.9043 1.1 87.8143 0.83 87.6343 0.669999C87.4743 0.489999 87.2043 0.399999 86.8243 0.399999H82.3543C81.9743 0.399999 81.6943 0.489999 81.5143 0.669999C81.3543 0.83 81.2743 1.1 81.2743 1.48V6.4C81.2743 6.6 81.2643 6.81 81.2443 7.03C81.2243 7.25 81.1443 7.46 81.0043 7.66L79.6243 9.82C79.5243 10 79.4143 10.13 79.2943 10.21C79.1943 10.29 79.0643 10.33 78.9043 10.33H78.6043C78.4443 10.33 78.3043 10.29 78.1843 10.21C78.0843 10.13 77.9843 10 77.8843 9.82L76.5043 7.66C76.3643 7.46 76.2843 7.25 76.2643 7.03C76.2443 6.81 76.2343 6.6 76.2343 6.4V1.48C76.2343 1.1 76.1443 0.83 75.9643 0.669999C75.8043 0.489999 75.5343 0.399999 75.1543 0.399999H70.5343C70.1543 0.399999 69.8743 0.489999 69.6943 0.669999C69.5343 0.83 69.4543 1.1 69.4543 1.48V7.24C69.4543 8.16 69.5243 8.85 69.6643 9.31C69.8243 9.77 70.1343 10.31 70.5943 10.93L75.1843 17.08V20.92C75.1843 21.3 75.2643 21.58 75.4243 21.76C75.6043 21.92 75.8843 22 76.2643 22H81.1243ZM79.0543 14.17H78.8443V19.3H78.5443V14.17H78.2443C77.8043 14.17 77.4043 14.07 77.0443 13.87C76.7043 13.67 76.3743 13.35 76.0543 12.91L73.1443 8.86C72.9243 8.56 72.7943 8.21 72.7543 7.81C72.7143 7.41 72.6943 6.99 72.6943 6.55V3.1H72.9943V6.55C72.9943 6.97 73.0143 7.37 73.0543 7.75C73.0943 8.11 73.2143 8.44 73.4143 8.74L76.3243 12.79C76.5843 13.19 76.8843 13.47 77.2243 13.63C77.5643 13.79 77.9043 13.87 78.2443 13.87H79.0543C79.4343 13.87 79.7743 13.79 80.0743 13.63C80.3943 13.45 80.7043 13.17 81.0043 12.79L84.0043 8.74C84.2043 8.48 84.3243 8.16 84.3643 7.78C84.4043 7.38 84.4243 6.97 84.4243 6.55V3.1H84.7243V6.55C84.7243 6.99 84.7043 7.41 84.6643 7.81C84.6443 8.19 84.5143 8.54 84.2743 8.86L81.2743 12.91C80.9543 13.35 80.6143 13.67 80.2543 13.87C79.9143 14.07 79.5143 14.17 79.0543 14.17ZM15.32 47.65C15.64 47.65 15.89 47.75 16.07 47.95C16.27 48.13 16.51 48.5 16.79 49.06L19.55 54.58C19.65 54.78 19.77 54.9 19.91 54.94C20.07 54.98 20.22 55 20.36 55H20.51C20.67 55 20.82 54.94 20.96 54.82C21.1 54.68 21.18 54.53 21.2 54.37L21.95 50.95C22.03 50.57 22.07 50.08 22.07 49.48C22.09 48.88 22.1 48.36 22.1 47.92V39.1H22.4V47.95C22.4 48.39 22.39 48.91 22.37 49.51C22.37 50.11 22.33 50.6 22.25 50.98L21.5 54.37C21.42 54.69 21.29 54.93 21.11 55.09C20.95 55.23 20.75 55.3 20.51 55.3H20.3C20.12 55.3 19.93 55.27 19.73 55.21C19.55 55.13 19.41 54.99 19.31 54.79L16.55 49.21C16.29 48.69 16.08 48.35 15.92 48.19C15.76 48.03 15.56 47.95 15.32 47.95H14.57C14.33 47.95 14.13 48.03 13.97 48.19C13.81 48.35 13.6 48.69 13.34 49.21L10.58 54.79C10.48 54.99 10.33 55.13 10.13 55.21C9.95 55.27 9.77 55.3 9.59 55.3H9.38C9.14 55.3 8.93 55.23 8.75 55.09C8.59 54.93 8.47 54.69 8.39 54.37L7.64 50.98C7.56 50.6 7.51 50.11 7.49 49.51C7.49 48.91 7.49 48.39 7.49 47.95V39.1H7.79V47.92C7.79 48.36 7.79 48.88 7.79 49.48C7.81 50.08 7.86 50.57 7.94 50.95L8.69 54.37C8.71 54.53 8.79 54.68 8.93 54.82C9.07 54.94 9.22 55 9.38 55H9.53C9.67 55 9.81 54.98 9.95 54.94C10.11 54.9 10.24 54.78 10.34 54.58L13.1 49.06C13.38 48.5 13.61 48.13 13.79 47.95C13.99 47.75 14.25 47.65 14.57 47.65H15.32ZM20.03 36.4C19.65 36.4 19.37 36.49 19.19 36.67C19.03 36.83 18.95 37.1 18.95 37.48V48.52L17.21 44.74C17.05 44.4 16.84 44.16 16.58 44.02C16.32 43.88 16 43.81 15.62 43.81H14.36C13.98 43.81 13.66 43.88 13.4 44.02C13.14 44.16 12.93 44.4 12.77 44.74L11.03 48.52V37.48C11.03 37.1 10.94 36.83 10.76 36.67C10.6 36.49 10.33 36.4 9.95 36.4H5.33C4.95 36.4 4.67 36.49 4.49 36.67C4.33 36.83 4.25 37.1 4.25 37.48V49.06C4.25 49.7 4.27 50.3 4.31 50.86C4.37 51.4 4.53 52.04 4.79 52.78L6.29 56.92C6.39 57.24 6.55 57.5 6.77 57.7C7.01 57.9 7.29 58 7.61 58H11.57C11.89 58 12.16 57.93 12.38 57.79C12.6 57.63 12.75 57.4 12.83 57.1L14.24 52.21C14.3 52.01 14.37 51.88 14.45 51.82C14.55 51.74 14.66 51.7 14.78 51.7H15.05C15.17 51.7 15.27 51.74 15.35 51.82C15.45 51.88 15.53 52.01 15.59 52.21L16.97 57.1C17.05 57.42 17.22 57.65 17.48 57.79C17.74 57.93 18.03 58 18.35 58H22.34C22.66 58 22.91 57.9 23.09 57.7C23.29 57.48 23.44 57.22 23.54 56.92L25.04 52.84C25.3 52.1 25.45 51.46 25.49 50.92C25.55 50.36 25.58 49.76 25.58 49.12V37.48C25.58 37.1 25.49 36.83 25.31 36.67C25.15 36.49 24.88 36.4 24.5 36.4H20.03ZM8.75 61.21C8.61 61.31 8.45 61.39 8.27 61.45C8.09 61.53 7.9 61.57 7.7 61.57H3.74C3.36 61.57 3.03 61.45 2.75 61.21C2.47 60.97 2.27 60.66 2.15 60.28L0.65 56.14C0.37 55.4 0.2 54.75 0.14 54.19C0.1 53.61 0.0800001 52.99 0.0800001 52.33V40.75C0.0800001 40.49 0.11 40.27 0.17 40.09C0.25 39.91 0.36 39.76 0.5 39.64L4.37 36.37C4.47 36.29 4.6 36.23 4.76 36.19C4.94 36.13 5.13 36.1 5.33 36.1H9.95C10.43 36.1 10.78 36.21 11 36.43C11.22 36.65 11.33 37 11.33 37.48V45.31L13.01 43.9C13.17 43.76 13.36 43.66 13.58 43.6C13.82 43.54 14.08 43.51 14.36 43.51H14.78V40.75C14.78 40.49 14.81 40.27 14.87 40.09C14.93 39.91 15.02 39.77 15.14 39.67L15.17 39.64L19.07 36.37C19.17 36.29 19.3 36.23 19.46 36.19C19.62 36.13 19.81 36.1 20.03 36.1H24.5C24.98 36.1 25.33 36.21 25.55 36.43C25.77 36.65 25.88 37 25.88 37.48V49.12C25.88 49.78 25.85 50.4 25.79 50.98C25.75 51.54 25.59 52.19 25.31 52.93L23.81 57.01C23.75 57.21 23.67 57.39 23.57 57.55C23.47 57.71 23.35 57.86 23.21 58L19.34 61.21C19.22 61.33 19.09 61.42 18.95 61.48C18.81 61.54 18.65 61.57 18.47 61.57H14.48C14.08 61.57 13.73 61.48 13.43 61.3C13.13 61.12 12.92 60.84 12.8 60.46L12.2 58.33L8.75 61.21ZM43.5699 61.57H29.6499C29.1699 61.57 28.8199 61.46 28.5999 61.24C28.3799 61.02 28.2699 60.67 28.2699 60.19V40.75C28.2699 40.49 28.2999 40.27 28.3599 40.09C28.4399 39.91 28.5499 39.76 28.6899 39.64L32.5599 36.37C32.6599 36.29 32.7899 36.23 32.9499 36.19C33.1299 36.13 33.3199 36.1 33.5199 36.1H47.4399C47.9199 36.1 48.2699 36.21 48.4899 36.43C48.7099 36.65 48.8199 37 48.8199 37.48V40.99C48.8199 41.25 48.7799 41.47 48.6999 41.65C48.6399 41.83 48.5399 41.98 48.3999 42.1L45.8199 44.23C46.0199 44.33 46.1599 44.48 46.2399 44.68C46.3399 44.88 46.3899 45.14 46.3899 45.46V48.67C46.3899 48.93 46.3499 49.15 46.2699 49.33C46.2099 49.51 46.1099 49.66 45.9699 49.78L43.2999 52.03H47.4399C47.9199 52.03 48.2699 52.14 48.4899 52.36C48.7099 52.58 48.8199 52.93 48.8199 53.41V56.92C48.8199 57.18 48.7799 57.4 48.6999 57.58C48.6399 57.76 48.5399 57.91 48.3999 58.03L44.4999 61.27C44.4199 61.35 44.2899 61.42 44.1099 61.48C43.9499 61.54 43.7699 61.57 43.5699 61.57ZM47.4399 58C47.8199 58 48.0899 57.92 48.2499 57.76C48.4299 57.58 48.5199 57.3 48.5199 56.92V53.41C48.5199 53.03 48.4299 52.76 48.2499 52.6C48.0899 52.42 47.8199 52.33 47.4399 52.33H39.1599V49.75H45.0099C45.3899 49.75 45.6599 49.67 45.8199 49.51C45.9999 49.33 46.0899 49.05 46.0899 48.67V45.46C46.0899 45.08 45.9999 44.81 45.8199 44.65C45.6599 44.47 45.3899 44.38 45.0099 44.38H39.1599V42.07H47.4399C47.8199 42.07 48.0899 41.99 48.2499 41.83C48.4299 41.65 48.5199 41.37 48.5199 40.99V37.48C48.5199 37.1 48.4299 36.83 48.2499 36.67C48.0899 36.49 47.8199 36.4 47.4399 36.4H33.5199C33.1399 36.4 32.8599 36.49 32.6799 36.67C32.5199 36.83 32.4399 37.1 32.4399 37.48V56.92C32.4399 57.3 32.5199 57.58 32.6799 57.76C32.8599 57.92 33.1399 58 33.5199 58H47.4399ZM45.8199 55V55.3H35.7099V39.1H45.8199V39.4H36.0099V46.93H43.3899V47.23H36.0099V55H45.8199ZM58.0871 48.91V49.84H69.7871V48.91C69.7871 48.37 69.7371 47.87 69.6371 47.41C69.5571 46.95 69.4471 46.52 69.3071 46.12L67.2371 41.23C67.0171 40.71 66.7871 40.28 66.5471 39.94C66.3071 39.58 65.9071 39.4 65.3471 39.4H62.4071C61.8071 39.4 61.3871 39.58 61.1471 39.94C60.9071 40.28 60.6871 40.7 60.4871 41.2L58.5671 46.12C58.4271 46.52 58.3071 46.95 58.2071 47.41C58.1271 47.87 58.0871 48.37 58.0871 48.91ZM62.8871 42.7C62.9671 42.52 63.0471 42.39 63.1271 42.31C63.2271 42.23 63.3371 42.19 63.4571 42.19H64.2071C64.3271 42.19 64.4271 42.23 64.5071 42.31C64.6071 42.39 64.6971 42.52 64.7771 42.7L66.1871 47.26H61.4771L62.8871 42.7ZM69.7871 55.3V50.14H58.0871V55.3H57.7871V48.91C57.7871 48.35 57.8271 47.84 57.9071 47.38C58.0071 46.9 58.1371 46.44 58.2971 46L60.2171 41.08C60.4371 40.52 60.6871 40.05 60.9671 39.67C61.2471 39.29 61.7271 39.1 62.4071 39.1H65.3471C66.0071 39.1 66.4671 39.29 66.7271 39.67C67.0071 40.05 67.2671 40.53 67.5071 41.11L69.5771 46C69.7371 46.44 69.8571 46.9 69.9371 47.38C70.0371 47.84 70.0871 48.35 70.0871 48.91V55.3H69.7871ZM61.1771 56.92V52.72H66.4871V56.92C66.4871 57.3 66.5771 57.58 66.7571 57.76C66.9571 57.92 67.2571 58 67.6571 58H72.1871C72.5671 58 72.8371 57.92 72.9971 57.76C73.1771 57.58 73.2671 57.3 73.2671 56.92V49C73.2671 48.4 73.1671 47.71 72.9671 46.93C72.7871 46.15 72.4971 45.24 72.0971 44.2L69.4871 37.39C69.3671 37.05 69.1771 36.8 68.9171 36.64C68.6771 36.48 68.3671 36.4 67.9871 36.4H59.9171C59.5171 36.4 59.1871 36.48 58.9271 36.64C58.6871 36.8 58.5071 37.05 58.3871 37.39L55.7771 44.2C55.3771 45.24 55.0771 46.15 54.8771 46.93C54.6971 47.71 54.6071 48.4 54.6071 49V56.92C54.6071 57.3 54.6871 57.58 54.8471 57.76C55.0271 57.92 55.3071 58 55.6871 58H60.0971C60.4771 58 60.7471 57.92 60.9071 57.76C61.0871 57.58 61.1771 57.3 61.1771 56.92ZM57.1571 61.27C57.0771 61.35 56.9471 61.42 56.7671 61.48C56.6071 61.54 56.4271 61.57 56.2271 61.57H51.8171C51.3371 61.57 50.9871 61.46 50.7671 61.24C50.5471 61.02 50.4371 60.67 50.4371 60.19V52.27C50.4371 51.65 50.5271 50.95 50.7071 50.17C50.9071 49.37 51.2171 48.43 51.6371 47.35L54.2171 40.57C54.2771 40.39 54.3471 40.24 54.4271 40.12C54.5271 39.98 54.6271 39.86 54.7271 39.76L54.7571 39.73L58.5971 36.52C58.7571 36.38 58.9471 36.28 59.1671 36.22C59.3871 36.14 59.6371 36.1 59.9171 36.1H67.9871C68.4471 36.1 68.8171 36.2 69.0971 36.4C69.3971 36.58 69.6171 36.87 69.7571 37.27L72.3671 44.08C72.7871 45.16 73.0871 46.1 73.2671 46.9C73.4671 47.68 73.5671 48.38 73.5671 49V56.92C73.5671 57.18 73.5271 57.4 73.4471 57.58C73.3871 57.76 73.2871 57.91 73.1471 58.03L69.2471 61.27C69.1671 61.35 69.0371 61.42 68.8571 61.48C68.6971 61.54 68.5171 61.57 68.3171 61.57H63.7871C63.2871 61.57 62.9171 61.45 62.6771 61.21C62.4371 60.99 62.3171 60.65 62.3171 60.19V56.29H61.4771V56.92C61.4771 57.18 61.4371 57.4 61.3571 57.58C61.2971 57.76 61.1971 57.91 61.0571 58.03L57.1571 61.27ZM85.0883 61.57H80.2283C79.7483 61.57 79.3983 61.46 79.1783 61.24C78.9583 61.02 78.8483 60.67 78.8483 60.19V45.76H74.7383C74.2583 45.76 73.9083 45.65 73.6883 45.43C73.4683 45.21 73.3583 44.86 73.3583 44.38V40.75C73.3583 40.49 73.3883 40.27 73.4483 40.09C73.5283 39.91 73.6383 39.76 73.7783 39.64L77.6483 36.37C77.7483 36.29 77.8783 36.23 78.0383 36.19C78.2183 36.13 78.4083 36.1 78.6083 36.1H94.4483C94.9283 36.1 95.2783 36.21 95.4983 36.43C95.7183 36.65 95.8283 37 95.8283 37.48V41.11C95.8283 41.37 95.7883 41.59 95.7083 41.77C95.6483 41.95 95.5483 42.1 95.4083 42.22L91.5083 45.46C91.4283 45.54 91.2983 45.61 91.1183 45.67C90.9583 45.73 90.7783 45.76 90.5783 45.76H90.3383V56.92C90.3383 57.18 90.2983 57.4 90.2183 57.58C90.1583 57.76 90.0583 57.91 89.9183 58.03L86.0183 61.27C85.9383 61.35 85.8083 61.42 85.6283 61.48C85.4683 61.54 85.2883 61.57 85.0883 61.57ZM88.9583 58C89.3383 58 89.6083 57.92 89.7683 57.76C89.9483 57.58 90.0383 57.3 90.0383 56.92V42.19H94.4483C94.8283 42.19 95.0983 42.11 95.2583 41.95C95.4383 41.77 95.5283 41.49 95.5283 41.11V37.48C95.5283 37.1 95.4383 36.83 95.2583 36.67C95.0983 36.49 94.8283 36.4 94.4483 36.4H78.6083C78.2283 36.4 77.9483 36.49 77.7683 36.67C77.6083 36.83 77.5283 37.1 77.5283 37.48V41.11C77.5283 41.49 77.6083 41.77 77.7683 41.95C77.9483 42.11 78.2283 42.19 78.6083 42.19H83.0183V56.92C83.0183 57.3 83.0983 57.58 83.2583 57.76C83.4383 57.92 83.7183 58 84.0983 58H88.9583ZM86.3783 55.3V39.4H80.2283V39.1H92.8283V39.4H86.6783V55.3H86.3783ZM104.674 55.3V39.1H104.974V47.05H116.494V39.1H116.794V55.3H116.494V47.35H104.974V55.3H104.674ZM107.164 58C107.544 58 107.814 57.92 107.974 57.76C108.154 57.58 108.244 57.3 108.244 56.92V50.26H113.254V56.92C113.254 57.3 113.334 57.58 113.494 57.76C113.674 57.92 113.954 58 114.334 58H118.984C119.364 58 119.634 57.92 119.794 57.76C119.974 57.58 120.064 57.3 120.064 56.92V37.48C120.064 37.1 119.974 36.83 119.794 36.67C119.634 36.49 119.364 36.4 118.984 36.4H114.334C113.954 36.4 113.674 36.49 113.494 36.67C113.334 36.83 113.254 37.1 113.254 37.48V43.99H108.244V37.48C108.244 37.1 108.154 36.83 107.974 36.67C107.814 36.49 107.544 36.4 107.164 36.4H102.514C102.134 36.4 101.854 36.49 101.674 36.67C101.514 36.83 101.434 37.1 101.434 37.48V56.92C101.434 57.3 101.514 57.58 101.674 57.76C101.854 57.92 102.134 58 102.514 58H107.164ZM108.124 58.03L104.224 61.27C104.144 61.35 104.014 61.42 103.834 61.48C103.674 61.54 103.494 61.57 103.294 61.57H98.6441C98.1641 61.57 97.8141 61.46 97.5941 61.24C97.3741 61.02 97.2641 60.67 97.2641 60.19V40.75C97.2641 40.49 97.2941 40.27 97.3541 40.09C97.4341 39.91 97.5441 39.76 97.6841 39.64L101.554 36.37C101.654 36.29 101.784 36.23 101.944 36.19C102.124 36.13 102.314 36.1 102.514 36.1H107.164C107.644 36.1 107.994 36.21 108.214 36.43C108.434 36.65 108.544 37 108.544 37.48V43.69H109.084V40.75C109.084 40.49 109.114 40.27 109.174 40.09C109.254 39.91 109.364 39.76 109.504 39.64L113.374 36.37C113.474 36.29 113.604 36.23 113.764 36.19C113.944 36.13 114.134 36.1 114.334 36.1H118.984C119.464 36.1 119.814 36.21 120.034 36.43C120.254 36.65 120.364 37 120.364 37.48V56.92C120.364 57.18 120.324 57.4 120.244 57.58C120.184 57.76 120.084 57.91 119.944 58.03L116.044 61.27C115.964 61.35 115.834 61.42 115.654 61.48C115.494 61.54 115.314 61.57 115.114 61.57H110.464C109.984 61.57 109.634 61.46 109.414 61.24C109.194 61.02 109.084 60.67 109.084 60.19V53.83H108.544V56.92C108.544 57.18 108.504 57.4 108.424 57.58C108.364 57.76 108.264 57.91 108.124 58.03ZM138.345 61.57H124.425C123.945 61.57 123.595 61.46 123.375 61.24C123.155 61.02 123.045 60.67 123.045 60.19V40.75C123.045 40.49 123.075 40.27 123.135 40.09C123.215 39.91 123.325 39.76 123.465 39.64L127.335 36.37C127.435 36.29 127.565 36.23 127.725 36.19C127.905 36.13 128.095 36.1 128.295 36.1H142.215C142.695 36.1 143.045 36.21 143.265 36.43C143.485 36.65 143.595 37 143.595 37.48V40.99C143.595 41.25 143.555 41.47 143.475 41.65C143.415 41.83 143.315 41.98 143.175 42.1L140.595 44.23C140.795 44.33 140.935 44.48 141.015 44.68C141.115 44.88 141.165 45.14 141.165 45.46V48.67C141.165 48.93 141.125 49.15 141.045 49.33C140.985 49.51 140.885 49.66 140.745 49.78L138.075 52.03H142.215C142.695 52.03 143.045 52.14 143.265 52.36C143.485 52.58 143.595 52.93 143.595 53.41V56.92C143.595 57.18 143.555 57.4 143.475 57.58C143.415 57.76 143.315 57.91 143.175 58.03L139.275 61.27C139.195 61.35 139.065 61.42 138.885 61.48C138.725 61.54 138.545 61.57 138.345 61.57ZM142.215 58C142.595 58 142.865 57.92 143.025 57.76C143.205 57.58 143.295 57.3 143.295 56.92V53.41C143.295 53.03 143.205 52.76 143.025 52.6C142.865 52.42 142.595 52.33 142.215 52.33H133.935V49.75H139.785C140.165 49.75 140.435 49.67 140.595 49.51C140.775 49.33 140.865 49.05 140.865 48.67V45.46C140.865 45.08 140.775 44.81 140.595 44.65C140.435 44.47 140.165 44.38 139.785 44.38H133.935V42.07H142.215C142.595 42.07 142.865 41.99 143.025 41.83C143.205 41.65 143.295 41.37 143.295 40.99V37.48C143.295 37.1 143.205 36.83 143.025 36.67C142.865 36.49 142.595 36.4 142.215 36.4H128.295C127.915 36.4 127.635 36.49 127.455 36.67C127.295 36.83 127.215 37.1 127.215 37.48V56.92C127.215 57.3 127.295 57.58 127.455 57.76C127.635 57.92 127.915 58 128.295 58H142.215ZM140.595 55V55.3H130.485V39.1H140.595V39.4H130.785V46.93H138.165V47.23H130.785V55H140.595ZM159.913 39.4H153.373V48.07H159.913C161.153 48.07 161.983 47.77 162.403 47.17C162.823 46.57 163.033 45.72 163.033 44.62V42.52C163.033 41.6 162.773 40.85 162.253 40.27C161.753 39.69 160.973 39.4 159.913 39.4ZM156.613 41.8H158.863C159.383 41.8 159.733 41.94 159.913 42.22C160.093 42.48 160.183 42.81 160.183 43.21V44.23C160.183 44.63 160.093 44.97 159.913 45.25C159.733 45.51 159.383 45.64 158.863 45.64H156.613V41.8ZM153.373 55.3H153.073V39.1H159.913C161.073 39.1 161.933 39.43 162.493 40.09C163.053 40.73 163.333 41.54 163.333 42.52V44.59C163.333 45.51 163.213 46.27 162.973 46.87C162.733 47.45 162.253 47.85 161.533 48.07H161.863C163.083 48.07 163.993 48.35 164.593 48.91C165.193 49.45 165.493 50.24 165.493 51.28V55.3H165.193V51.28C165.193 50.3 164.923 49.57 164.383 49.09C163.843 48.59 163.003 48.34 161.863 48.34H153.373V55.3ZM155.533 58C155.913 58 156.183 57.92 156.343 57.76C156.523 57.58 156.613 57.3 156.613 56.92V51.04H160.813C161.233 51.04 161.523 51.15 161.683 51.37C161.863 51.57 161.952 51.89 161.952 52.33V56.92C161.952 57.3 162.033 57.58 162.193 57.76C162.373 57.92 162.653 58 163.033 58H167.683C168.063 58 168.333 57.92 168.493 57.76C168.673 57.58 168.763 57.3 168.763 56.92V50.56C168.763 49.3 168.423 48.29 167.743 47.53C167.083 46.77 166.213 46.33 165.133 46.21C165.753 45.95 166.183 45.53 166.423 44.95C166.683 44.35 166.813 43.63 166.813 42.79V41.41C166.813 39.93 166.383 38.73 165.523 37.81C164.683 36.87 163.143 36.4 160.903 36.4H150.913C150.533 36.4 150.253 36.49 150.073 36.67C149.913 36.83 149.833 37.1 149.833 37.48V56.92C149.833 57.3 149.913 57.58 150.073 57.76C150.253 57.92 150.533 58 150.913 58H155.533ZM156.493 58.03L152.593 61.27C152.513 61.35 152.383 61.42 152.203 61.48C152.043 61.54 151.863 61.57 151.663 61.57H147.043C146.563 61.57 146.213 61.46 145.993 61.24C145.773 61.02 145.663 60.67 145.663 60.19V40.75C145.663 40.49 145.693 40.27 145.753 40.09C145.833 39.91 145.943 39.76 146.083 39.64L149.953 36.37C150.053 36.29 150.183 36.23 150.343 36.19C150.523 36.13 150.713 36.1 150.913 36.1H160.903C163.283 36.1 164.913 36.6 165.793 37.6C166.673 38.58 167.113 39.85 167.113 41.41V42.79C167.113 43.53 167.023 44.18 166.843 44.74C166.663 45.28 166.373 45.72 165.973 46.06H165.943C166.883 46.32 167.633 46.84 168.193 47.62C168.773 48.4 169.063 49.38 169.063 50.56V56.92C169.063 57.18 169.023 57.4 168.943 57.58C168.883 57.76 168.783 57.91 168.643 58.03L164.743 61.27C164.663 61.35 164.533 61.42 164.353 61.48C164.193 61.54 164.013 61.57 163.813 61.57H159.163C158.683 61.57 158.333 61.46 158.113 61.24C157.893 61.02 157.783 60.67 157.783 60.19V55.6C157.783 55.28 157.723 55.04 157.603 54.88C157.483 54.7 157.263 54.61 156.943 54.61H156.913V56.92C156.913 57.18 156.873 57.4 156.793 57.58C156.733 57.76 156.633 57.91 156.493 58.03Z" fill="white"/>
</svg>
